HIERARCHY
ROOT root
{
  OFFSET 0 87.9003 0
  CHANNELS 6 Xposition Yposition Zposition Zrotation Xrotation Yrotation
  JOINT torso_1
  {
    OFFSET 0 4.78511 -1.08482
    CHANNELS 6 Xposition Yposition Zposition Zrotation Xrotation Yrotation
    JOINT torso_2
    {
      OFFSET 0 5.29195 1.00949
      CHANNELS 6 Xposition Yposition Zposition Zrotation Xrotation Yrotation
      JOINT torso_3
      {
        OFFSET -9.66735e-18 5.64355 0.108362
        CHANNELS 6 Xposition Yposition Zposition Zrotation Xrotation Yrotation
        JOINT torso_4
        {
          OFFSET -1.04072e-17 6.12977 -0.417886
          CHANNELS 6 Xposition Yposition Zposition Zrotation Xrotation Yrotation
          JOINT torso_5
          {
            OFFSET -1.85891e-17 7.16586 -1.41888
            CHANNELS 6 Xposition Yposition Zposition Zrotation Xrotation Yrotation
            JOINT torso_6
            {
              OFFSET -2.38665e-17 8.94839 -0.861631
              CHANNELS 6 Xposition Yposition Zposition Zrotation Xrotation Yrotation
              JOINT torso_7
              {
                OFFSET -2.73615e-17 9.94144 1.48576
                CHANNELS 6 Xposition Yposition Zposition Zrotation Xrotation Yrotation
                JOINT neck_1
                {
                  OFFSET -1.21725e-17 4.50977 0.67399
                  CHANNELS 6 Xposition Yposition Zposition Zrotation Xrotation Yrotation
                  JOINT neck_2
                  {
                    OFFSET -1.70689e-17 4.54241 0.39741
                    CHANNELS 6 Xposition Yposition Zposition Zrotation Xrotation Yrotation
                    JOINT head
                    {
                      OFFSET -1.89342e-17 4.5512 0.720839
                      CHANNELS 6 Xposition Yposition Zposition Zrotation Xrotation Yrotation
                      End Site
                      {
                        OFFSET 0 0.1 0
                      }
                    }
                  }
                }
                JOINT l_shoulder
                {
                  OFFSET 1.16172 -7.16758 7.09827
                  CHANNELS 6 Xposition Yposition Zposition Zrotation Xrotation Yrotation
                  JOINT l_up_arm
                  {
                    OFFSET 12.2059 3.06167 -3.07978
                    CHANNELS 6 Xposition Yposition Zposition Zrotation Xrotation Yrotation
                    JOINT l_low_arm
                    {
                      OFFSET 27.5197 0.056351 0.129118
                      CHANNELS 6 Xposition Yposition Zposition Zrotation Xrotation Yrotation
                      JOINT l_hand
                      {
                        OFFSET 22.8331 0.0467536 0.107129
                        CHANNELS 6 Xposition Yposition Zposition Zrotation Xrotation Yrotation
                        End Site
                        {
                          OFFSET 0.1 0 0
                        }
                      }
                    }
                  }
                }
                JOINT r_shoulder
                {
                  OFFSET -1.16172 -7.16756 7.09818
                  CHANNELS 6 Xposition Yposition Zposition Zrotation Xrotation Yrotation
                  JOINT r_up_arm
                  {
                    OFFSET -12.2059 3.06167 -3.07978
                    CHANNELS 6 Xposition Yposition Zposition Zrotation Xrotation Yrotation
                    JOINT r_low_arm
                    {
                      OFFSET -27.5197 0.056351 0.129118
                      CHANNELS 6 Xposition Yposition Zposition Zrotation Xrotation Yrotation
                      JOINT r_hand
                      {
                        OFFSET -22.8331 0.0467534 0.107129
                        CHANNELS 6 Xposition Yposition Zposition Zrotation Xrotation Yrotation
                        End Site
                        {
                          OFFSET -0.1 0 0
                        }
                      }
                    }
                  }
                }
              }
            }
          }
        }
      }
    }
  }
  JOINT l_up_leg
  {
    OFFSET 8.70282 -3.96247 1.9152
    CHANNELS 6 Xposition Yposition Zposition Zrotation Xrotation Yrotation
    JOINT l_low_leg
    {
      OFFSET -0.803084 -36.5309 -0.617314
      CHANNELS 6 Xposition Yposition Zposition Zrotation Xrotation Yrotation
      JOINT l_foot
      {
        OFFSET -2.19176 -38.0664 -5.69911
        CHANNELS 6 Xposition Yposition Zposition Zrotation Xrotation Yrotation
        JOINT l_toes
        {
          OFFSET 0.734061 -9.31305 11.7736
          CHANNELS 6 Xposition Yposition Zposition Zrotation Xrotation Yrotation
          End Site
          {
            OFFSET 0 0 0.1
          }
        }
      }
    }
  }
  JOINT r_up_leg
  {
    OFFSET -8.70282 -3.96247 1.9152
    CHANNELS 6 Xposition Yposition Zposition Zrotation Xrotation Yrotation
    JOINT r_low_leg
    {
      OFFSET 0.803084 -36.5309 -0.617314
      CHANNELS 6 Xposition Yposition Zposition Zrotation Xrotation Yrotation
      JOINT r_foot
      {
        OFFSET 2.19176 -38.0664 -5.69911
        CHANNELS 6 Xposition Yposition Zposition Zrotation Xrotation Yrotation
        JOINT r_toes
        {
          OFFSET -0.734061 -9.31305 11.7736
          CHANNELS 6 Xposition Yposition Zposition Zrotation Xrotation Yrotation
          End Site
          {
            OFFSET 0 0 0.1
          }
        }
      }
    }
  }
}
MOTION
Frames: 7
Frame Time: 0.020000
0 87.9003 0 -0 0 -0 0 4.78511 -1.08482 -0 0 -0 0 5.29195 1.00949 -0 0 -0 -9.66735e-18 5.64355 0.108362 -0 0 -0 -1.04072e-17 6.12977 -0.417886 -0 0 -0 -1.85891e-17 7.16586 -1.41888 -0 0 -0 -2.38665e-17 8.94839 -0.861631 -0 0 -0 -2.73615e-17 9.94144 1.48576 -0 0 -0 -1.21725e-17 4.50977 0.67399 -0 0 -0 -1.70689e-17 4.54241 0.39741 -0 0 -0 -1.89342e-17 4.5512 0.720839 -0 0 -0 1.16172 -7.16758 7.09827 -0 0 -0 12.2059 3.06167 -3.07978 -0 0 -0 27.5197 0.056351 0.129118 -0 0 -0 22.8331 0.0467536 0.107129 -0 0 -0 -1.16172 -7.16756 7.09818 -0 0 -0 -12.2059 3.06167 -3.07978 -0 0 -0 -27.5197 0.056351 0.129118 -0 0 -0 -22.8331 0.0467534 0.107129 -0 0 -0 8.70282 -3.96247 1.9152 -0 0 -0 -0.803084 -36.5309 -0.617314 -0 0 -0 -2.19176 -38.0664 -5.69911 -0 0 -0 0.734061 -9.31305 11.7736 -0 0 -0 -8.70282 -3.96247 1.9152 -0 0 -0 0.803084 -36.5309 -0.617314 -0 0 -0 2.19176 -38.0664 -5.69911 -0 0 -0 -0.734061 -9.31305 11.7736 -0 0 -0 
-4.56214 85.6044 -178.056 -0.931814 6.86818 11.8702 0 4.78511 -1.08482 -2.18224 0.674861 0.0348695 0 5.29195 1.00949 -1.67381 1.27588 -0.169739 -9.66735e-18 5.64355 0.108362 -1.13126 2.35991 -0.0782043 -1.04072e-17 6.12977 -0.417886 -0.603726 3.91744 -0.0329525 -1.85891e-17 7.16586 -1.41888 -0.0635504 4.23782 0.0276505 -2.38665e-17 8.94839 -0.861631 0.51638 4.57053 -0.232697 -2.73615e-17 9.94144 1.48576 -0.051438 0.39781 -0.0282993 -1.21725e-17 4.50977 0.67399 -0.278891 -1.25298 -7.87626 -1.70689e-17 4.54241 0.39741 3.98937 -10.7039 -3.81405 -1.89342e-17 4.5512 0.720839 4.75957 -13.2257 -0.858556 1.16172 -7.16758 7.09827 -0.99839 0.732415 -2.14964 12.2059 3.06167 -3.07978 -67.4933 11.8517 -19.7337 27.5197 0.056351 0.129118 2.44805 -0.241929 -11.8769 22.8331 0.0467536 0.107129 2.90132 -25.5712 -1.23365 -1.16172 -7.16756 7.09818 0.568276 1.17309 0.937374 -12.2059 3.06167 -3.07978 75.589 19.0364 13.051 -27.5197 0.056351 0.129118 -3.71256 -0.574193 18.1731 -22.8331 0.0467534 0.107129 1.25867 -5.03823 2.50437 8.70282 -3.96247 1.9152 3.75058 -7.54857 0.3519 -0.803084 -36.5309 -0.617314 -2.82495 10.4862 0.0757035 -2.19176 -38.0664 -5.69911 6.9185 -10.6618 16.0197 0.734061 -9.31305 11.7736 5.09669e-17 -7.94322e-16 1.16078e-17 -8.70282 -3.96247 1.9152 -1.73586 -9.77072 9.9393 0.803084 -36.5309 -0.617314 0.551475 2.05949 0.0260382 2.19176 -38.0664 -5.69911 -8.39591 -7.90072 -15.7882 -0.734061 -9.31305 11.7736 9.43093e-17 -5.92273e-16 -1.27678e-14 
-4.26556 85.5326 -178.43 -0.653805 7.04216 11.9792 0 4.78511 -1.08482 -2.09153 0.640213 0.10145 0 5.29195 1.00949 -1.62204 1.20012 -0.0959136 -9.66735e-18 5.64355 0.108362 -1.10775 2.23174 -0.00765112 -1.04072e-17 6.12977 -0.417886 -0.607863 3.70856 0.0361298 -1.85891e-17 7.16586 -1.41888 -0.0801442 3.98172 0.0961419 -2.38665e-17 8.94839 -0.861631 0.494494 4.26602 -0.154721 -2.73615e-17 9.94144 1.48576 -0.0581337 0.434421 -0.0170613 -1.21725e-17 4.50977 0.67399 -0.334596 -1.07956 -8.05929 -1.70689e-17 4.54241 0.39741 3.74901 -10.6359 -3.90892 -1.89342e-17 4.5512 0.720839 4.59464 -13.1534 -1.05056 1.16172 -7.16758 7.09827 -0.937821 0.702595 -1.90769 12.2059 3.06167 -3.07978 -68.4651 10.6538 -18.7862 27.5197 0.056351 0.129118 2.47607 -0.247706 -12.0147 22.8331 0.0467536 0.107129 2.79879 -26.0568 -1.79098 -1.16172 -7.16756 7.09818 0.443366 1.27568 0.762538 -12.2059 3.06167 -3.07978 75.5418 18.3637 12.7344 -27.5197 0.056351 0.129118 -3.54674 -0.522043 17.3367 -22.8331 0.0467534 0.107129 1.29037 -4.54688 2.32151 8.70282 -3.96247 1.9152 2.99418 -7.9493 -0.905618 -0.803084 -36.5309 -0.617314 -2.87525 10.6697 0.0817328 -2.19176 -38.0664 -5.69911 6.92823 -10.8804 16.0364 0.734061 -9.31305 11.7736 4.48536e-16 -7.81082e-16 -1.63243e-18 -8.70282 -3.96247 1.9152 -1.98384 -10.255 9.82103 0.803084 -36.5309 -0.617314 0.682474 2.54886 0.0293124 2.19176 -38.0664 -5.69911 -8.5176 -8.4296 -15.8624 -0.734061 -9.31305 11.7736 -1.44373e-15 -5.31785e-16 -1.27073e-14 
-4.0943 85.5418 -178.693 -0.582329 7.01379 12.4076 0 4.78511 -1.08482 -1.96147 0.628288 0.136225 0 5.29195 1.00949 -1.52508 1.15184 -0.0483647 -9.66735e-18 5.64355 0.108362 -1.04218 2.13871 0.0379834 -1.04072e-17 6.12977 -0.417886 -0.571423 3.54343 0.0811312 -1.85891e-17 7.16586 -1.41888 -0.0622481 3.77732 0.133691 -2.38665e-17 8.94839 -0.861631 0.496056 4.02771 -0.115629 -2.73615e-17 9.94144 1.48576 -0.0632177 0.468535 -0.00261088 -1.21725e-17 4.50977 0.67399 -0.356901 -0.917888 -8.30284 -1.70689e-17 4.54241 0.39741 3.59045 -10.6417 -4.02904 -1.89342e-17 4.5512 0.720839 4.43218 -13.0995 -1.20057 1.16172 -7.16758 7.09827 -0.963182 0.687938 -1.70651 12.2059 3.06167 -3.07978 -69.0975 9.91656 -17.9981 27.5197 0.056351 0.129118 2.54672 -0.262583 -12.3625 22.8331 0.0467536 0.107129 2.49508 -27.2661 -2.26798 -1.16172 -7.16756 7.09818 0.463689 1.41148 0.651661 -12.2059 3.06167 -3.07978 75.5506 17.6481 12.4408 -27.5197 0.056351 0.129118 -3.39511 -0.476667 16.575 -22.8331 0.0467534 0.107129 1.18744 -4.61198 2.1646 8.70282 -3.96247 1.9152 2.59499 -8.32627 -2.36452 -0.803084 -36.5309 -0.617314 -2.99807 11.117 0.0971333 -2.19176 -38.0664 -5.69911 6.80162 -10.9957 16.0325 0.734061 -9.31305 11.7736 7.67749e-16 -7.60315e-16 -2.23994e-17 -8.70282 -3.96247 1.9152 -2.07681 -10.6963 9.64841 0.803084 -36.5309 -0.617314 0.887624 3.31502 0.0321905 2.19176 -38.0664 -5.69911 -8.49995 -8.62372 -15.8918 -0.734061 -9.31305 11.7736 -2.23887e-15 -4.94513e-16 -1.26701e-14 
-3.9374 85.601 -178.817 -0.797549 6.98787 12.8958 0 4.78511 -1.08482 -1.77312 0.525599 0.136827 0 5.29195 1.00949 -1.36922 1.04624 -0.0286986 -9.66735e-18 5.64355 0.108362 -0.925537 2.02382 0.0564134 -1.04072e-17 6.12977 -0.417886 -0.489645 3.41153 0.0996952 -1.85891e-17 7.16586 -1.41888 -0.0110361 3.64634 0.137625 -2.38665e-17 8.94839 -0.861631 0.513087 3.88783 -0.116711 -2.73615e-17 9.94144 1.48576 -0.0693707 0.493198 0.0119043 -1.21725e-17 4.50977 0.67399 -0.353817 -0.829926 -8.49282 -1.70689e-17 4.54241 0.39741 3.51631 -10.6515 -4.1192 -1.89342e-17 4.5512 0.720839 4.26907 -13.1213 -1.22309 1.16172 -7.16758 7.09827 -0.999546 0.61564 -1.44265 12.2059 3.06167 -3.07978 -69.8204 9.20672 -17.1645 27.5197 0.056351 0.129118 2.66664 -0.288863 -12.9537 22.8331 0.0467536 0.107129 2.34577 -28.5751 -2.55297 -1.16172 -7.16756 7.09818 0.520531 1.50483 0.504854 -12.2059 3.06167 -3.07978 75.6574 16.8924 12.1285 -27.5197 0.056351 0.129118 -3.28177 -0.444178 16.0076 -22.8331 0.0467534 0.107129 1.05948 -4.97436 2.05391 8.70282 -3.96247 1.9152 2.4842 -8.64699 -4.09966 -0.803084 -36.5309 -0.617314 -3.10726 11.5136 0.111631 -2.19176 -38.0664 -5.69911 6.64986 -11.0361 16.0192 0.734061 -9.31305 11.7736 5.09666e-17 -7.94322e-16 1.16078e-17 -8.70282 -3.96247 1.9152 -1.97903 -11.3337 9.82568 0.803084 -36.5309 -0.617314 1.1725 4.37803 0.0316315 2.19176 -38.0664 -5.69911 -8.3012 -8.56663 -15.8878 -0.734061 -9.31305 11.7736 -2.85118e-15 -4.65403e-16 -1.2641e-14 
-3.81626 85.7232 -178.827 -1.08055 6.83494 13.1315 0 4.78511 -1.08482 -1.60217 0.357623 0.150699 0 5.29195 1.00949 -1.22836 0.904484 0.00238382 -9.66735e-18 5.64355 0.108362 -0.820249 1.90329 0.0855169 -1.04072e-17 6.12977 -0.417886 -0.416755 3.31908 0.128876 -1.85891e-17 7.16586 -1.41888 0.0372478 3.58888 0.15418 -2.38665e-17 8.94839 -0.861631 0.535669 3.84416 -0.106136 -2.73615e-17 9.94144 1.48576 -0.0734806 0.508868 0.0239915 -1.21725e-17 4.50977 0.67399 -0.360733 -0.815704 -8.69367 -1.70689e-17 4.54241 0.39741 3.49609 -10.6469 -4.21085 -1.89342e-17 4.5512 0.720839 4.25287 -13.1075 -1.07557 1.16172 -7.16758 7.09827 -1.06762 0.536645 -1.16842 12.2059 3.06167 -3.07978 -70.4168 8.60191 -16.2691 27.5197 0.056351 0.129118 2.79206 -0.31774 -13.5735 22.8331 0.0467536 0.107129 2.17959 -29.9647 -2.7488 -1.16172 -7.16756 7.09818 0.704385 1.58943 0.32809 -12.2059 3.06167 -3.07978 75.8215 16.2426 11.7693 -27.5197 0.056351 0.129118 -3.20582 -0.423082 15.6282 -22.8331 0.0467534 0.107129 0.96295 -5.81026 1.97374 8.70282 -3.96247 1.9152 2.56486 -8.6745 -5.59239 -0.803084 -36.5309 -0.617314 -3.17412 11.756 0.120882 -2.19176 -38.0664 -5.69911 6.23949 -10.9098 15.9862 0.734061 -9.31305 11.7736 4.48532e-16 -7.81082e-16 -1.63213e-18 -8.70282 -3.96247 1.9152 -1.77576 -11.8863 10.5214 0.803084 -36.5309 -0.617314 1.48751 5.55139 0.0248479 2.19176 -38.0664 -5.69911 -7.93411 -8.2243 -15.8474 -0.734061 -9.31305 11.7736 -1.02004e-15 -5.45842e-16 -1.27214e-14 
-3.75479 85.9384 -178.727 -1.28756 6.38606 13.1854 0 4.78511 -1.08482 -1.5118 0.0506476 0.198418 0 5.29195 1.00949 -1.15981 0.69592 0.0601905 -9.66735e-18 5.64355 0.108362 -0.771573 1.8012 0.138681 -1.04072e-17 6.12977 -0.417886 -0.387372 3.37758 0.182091 -1.85891e-17 7.16586 -1.41888 0.0612199 3.76294 0.203018 -2.38665e-17 8.94839 -0.861631 0.56073 4.08884 -0.0606256 -2.73615e-17 9.94144 1.48576 -0.0742103 0.494629 0.0298436 -1.21725e-17 4.50977 0.67399 -0.382368 -0.813726 -8.95545 -1.70689e-17 4.54241 0.39741 3.5524 -10.7478 -4.33498 -1.89342e-17 4.5512 0.720839 4.46363 -13.1012 -0.856199 1.16172 -7.16758 7.09827 -1.21321 0.360688 -0.899115 12.2059 3.06167 -3.07978 -70.8808 7.97977 -15.606 27.5197 0.056351 0.129118 2.88307 -0.339591 -14.0241 22.8331 0.0467536 0.107129 2.11594 -30.7491 -2.70973 -1.16172 -7.16756 7.09818 1.05474 1.55375 0.109021 -12.2059 3.06167 -3.07978 76.0973 15.649 11.6388 -27.5197 0.056351 0.129118 -3.12581 -0.401445 15.2292 -22.8331 0.0467534 0.107129 0.969495 -7.1386 1.80639 8.70282 -3.96247 1.9152 2.8389 -8.59584 -6.43285 -0.803084 -36.5309 -0.617314 -3.36818 12.4574 0.149332 -2.19176 -38.0664 -5.69911 5.32743 -10.4392 15.9306 0.734061 -9.31305 11.7736 7.67759e-16 -7.60315e-16 -2.23999e-17 -8.70282 -3.96247 1.9152 -1.54662 -11.9697 11.3517 0.803084 -36.5309 -0.617314 1.75328 6.53894 0.0140947 2.19176 -38.0664 -5.69911 -7.34774 -7.50252 -15.7471 -0.734061 -9.31305 11.7736 -1.33926e-15 -5.35866e-16 -1.27122e-14 
